<svg width="885" height="192" viewBox="0 0 885 192" fill="none" xmlns="http://www.w3.org/2000/svg">
<path d="M282.336 94.92C287.541 96.0293 291.723 98.632 294.88 102.728C298.037 106.739 299.616 111.347 299.616 116.552C299.616 124.061 296.971 130.035 291.68 134.472C286.475 138.824 279.179 141 269.792 141H227.936V51.144H268.384C277.515 51.144 284.64 53.2347 289.76 57.416C294.965 61.5973 297.568 67.272 297.568 74.44C297.568 79.7307 296.16 84.1253 293.344 87.624C290.613 91.1227 286.944 93.5547 282.336 94.92ZM249.824 87.496H264.16C267.744 87.496 270.475 86.728 272.352 85.192C274.315 83.5707 275.296 81.224 275.296 78.152C275.296 75.08 274.315 72.7333 272.352 71.112C270.475 69.4907 267.744 68.68 264.16 68.68H249.824V87.496ZM265.952 123.336C269.621 123.336 272.437 122.525 274.4 120.904C276.448 119.197 277.472 116.765 277.472 113.608C277.472 110.451 276.405 107.976 274.272 106.184C272.224 104.392 269.365 103.496 265.696 103.496H249.824V123.336H265.952ZM334.199 51.144V141H312.311V51.144H334.199ZM371.949 124.104H400.621V141H350.061V51.144H371.949V124.104ZM432.949 124.104H461.621V141H411.061V51.144H432.949V124.104ZM530.557 51.144V68.68H493.949V87.624H521.341V104.648H493.949V141H472.061V51.144H530.557ZM584.557 141.896C576.109 141.896 568.344 139.933 561.261 136.008C554.264 132.083 548.674 126.621 544.493 119.624C540.397 112.541 538.349 104.605 538.349 95.816C538.349 87.0267 540.397 79.1333 544.493 72.136C548.674 65.1387 554.264 59.6773 561.261 55.752C568.344 51.8267 576.109 49.864 584.557 49.864C593.005 49.864 600.728 51.8267 607.725 55.752C614.808 59.6773 620.354 65.1387 624.365 72.136C628.461 79.1333 630.509 87.0267 630.509 95.816C630.509 104.605 628.461 112.541 624.365 119.624C620.269 126.621 614.722 132.083 607.725 136.008C600.728 139.933 593.005 141.896 584.557 141.896ZM584.557 121.928C591.725 121.928 597.442 119.539 601.709 114.76C606.061 109.981 608.237 103.667 608.237 95.816C608.237 87.88 606.061 81.5653 601.709 76.872C597.442 72.0933 591.725 69.704 584.557 69.704C577.304 69.704 571.501 72.0507 567.149 76.744C562.882 81.4373 560.749 87.7947 560.749 95.816C560.749 103.752 562.882 110.109 567.149 114.888C571.501 119.581 577.304 121.928 584.557 121.928ZM688.51 141L669.822 107.08H664.574V141H642.686V51.144H679.422C686.505 51.144 692.521 52.3813 697.47 54.856C702.505 57.3307 706.259 60.744 708.734 65.096C711.209 69.3627 712.446 74.1413 712.446 79.432C712.446 85.4053 710.739 90.7387 707.326 95.432C703.998 100.125 699.049 103.453 692.478 105.416L713.214 141H688.51ZM664.574 91.592H678.142C682.153 91.592 685.139 90.6107 687.102 88.648C689.15 86.6853 690.174 83.912 690.174 80.328C690.174 76.9147 689.15 74.2267 687.102 72.264C685.139 70.3013 682.153 69.32 678.142 69.32H664.574V91.592ZM785.834 79.56C784.213 76.5733 781.866 74.312 778.794 72.776C775.807 71.1547 772.266 70.344 768.17 70.344C761.087 70.344 755.413 72.6907 751.146 77.384C746.879 81.992 744.746 88.1787 744.746 95.944C744.746 104.221 746.965 110.707 751.402 115.4C755.925 120.008 762.111 122.312 769.962 122.312C775.338 122.312 779.861 120.947 783.53 118.216C787.285 115.485 790.015 111.56 791.722 106.44H763.946V90.312H811.562V110.664C809.941 116.125 807.167 121.203 803.242 125.896C799.402 130.589 794.495 134.387 788.522 137.288C782.549 140.189 775.807 141.64 768.298 141.64C759.423 141.64 751.487 139.72 744.49 135.88C737.578 131.955 732.159 126.536 728.234 119.624C724.394 112.712 722.474 104.819 722.474 95.944C722.474 87.0693 724.394 79.176 728.234 72.264C732.159 65.2667 737.578 59.848 744.49 56.008C751.402 52.0827 759.295 50.12 768.17 50.12C778.922 50.12 787.967 52.7227 795.306 57.928C802.73 63.1333 807.637 70.344 810.026 79.56H785.834ZM845.574 68.68V86.856H874.886V103.752H845.574V123.464H878.726V141H823.686V51.144H878.726V68.68H845.574Z" fill="black"/>
<path d="M108.679 49H0V73.2165L33.1132 82.0804C67.7547 91.3533 47.5472 114.218 33.1132 124.491V144H51.7925C71.4906 124.321 90.566 135.801 97.6415 144H116.321V124.491C85.0755 98.7054 98.2076 88.3006 108.679 86.3214C161.66 81.5714 178.302 63.4196 180 54.9375H108.679V49Z" fill="black"/>
</svg>
