<svg width="24" height="24" viewBox="0 0 24 24" fill="none" xmlns="http://www.w3.org/2000/svg">
<g clip-path="url(#clip0_1051_8858)">
<path fill-rule="evenodd" clip-rule="evenodd" d="M23.65 14.71H22.06C22.28 12.59 22.6 10.49 22.79 8.38C22.88 7.46 22.94 6.54 22.97 5.61C23.0157 4.76729 23.0157 3.92271 22.97 3.08C22.937 2.44988 22.7554 1.83651 22.44 1.29C22.1806 0.869052 21.7745 0.559111 21.3 0.42C20.7161 0.288427 20.1184 0.227988 19.52 0.24C18.35 0.18 17.18 0.11 16 0.07L13.66 0H11.28C10.48 0 9.7 0.12 8.91 0.18L6.21 0.44L4.39 0.54C3.87455 0.503582 3.35915 0.611548 2.90165 0.851779C2.44415 1.09201 2.06266 1.455 1.8 1.9C1.32 2.81 1.42 4.2 1.4 5.9L1.34 8.57L1.43 13.7C1.43 13.7769 1.46056 13.8507 1.51494 13.9051C1.56933 13.9594 1.64309 13.99 1.72 13.99C1.79692 13.99 1.87068 13.9594 1.92507 13.9051C1.97945 13.8507 2.01 13.7769 2.01 13.7L2.06 8.59L2.2 5.94C2.28 4.41 2.2 3.15 2.62 2.34C2.9 1.84 3.45 1.58 4.45 1.54L6.28 1.49L9 1.27C9.78 1.21 10.56 1.17 11.33 1.14C12.1 1.11 12.88 1.14 13.66 1.14L19.48 1.31C19.9988 1.28506 20.5187 1.3186 21.03 1.41C21.2809 1.4699 21.5013 1.61923 21.65 1.83C21.8956 2.24011 22.0396 2.70297 22.07 3.18C22.1192 3.98592 22.1192 4.79408 22.07 5.6C22.07 6.51 22.07 7.41 21.97 8.31C21.82 10.44 21.55 12.54 21.39 14.68C19.88 14.6 18.39 14.46 16.84 14.4C15.73 14.4 14.63 14.34 13.52 14.34C11.76 14.34 10.02 14.34 8.52 14.46C5.76 14.59 3.01 14.83 0.240004 15.05C0.201889 15.0525 0.164651 15.0626 0.130429 15.0796C0.0962062 15.0965 0.0656738 15.1201 0.0405852 15.1489C0.0154965 15.1777 -0.00365399 15.2112 -0.0157664 15.2474C-0.0278788 15.2836 -0.0327145 15.3219 -0.0299957 15.36C-0.0287475 15.3977 -0.0199082 15.4347 -0.00400754 15.4689C0.0118931 15.503 0.0345279 15.5336 0.0625405 15.5588C0.0905532 15.5841 0.123367 15.6034 0.159016 15.6156C0.194665 15.6278 0.232415 15.6327 0.270004 15.63L10.59 15.48C10.53 15.98 10.48 16.48 10.47 16.98C10.4449 17.4463 10.4449 17.9137 10.47 18.38C10.47 18.88 10.54 19.38 10.58 19.88C10.2728 19.8922 9.97356 19.9816 9.71 20.14C9.40013 20.3234 9.1028 20.5271 8.82 20.75C8.31 21.16 7.82 21.57 7.29 22C6.78034 22.4315 6.29619 22.8923 5.84 23.38C5.78798 23.4356 5.75904 23.5089 5.75904 23.585C5.75904 23.6611 5.78798 23.7344 5.84 23.79C5.86607 23.8166 5.89719 23.8377 5.93153 23.8522C5.96588 23.8666 6.00275 23.874 6.04 23.874C6.07726 23.874 6.11413 23.8666 6.14847 23.8522C6.18282 23.8377 6.21393 23.8166 6.24 23.79C6.63 23.46 7.04 23.15 7.46 22.85C8.09 22.41 8.75 22 9.46 21.6C9.71598 21.4198 9.98319 21.2562 10.26 21.11C10.3812 21.0357 10.5183 20.9911 10.66 20.98C10.8286 20.9892 10.9929 21.0371 11.14 21.12C11.4589 21.2858 11.7663 21.4729 12.06 21.68C12.77 22.12 13.49 22.55 14.19 23C14.65 23.3 15.1 23.61 15.53 23.94C15.5615 23.9754 15.6002 24.0037 15.6436 24.0228C15.6869 24.0419 15.7339 24.0515 15.7813 24.0508C15.8287 24.0502 15.8754 24.0393 15.9182 24.019C15.961 23.9987 15.9989 23.9694 16.0294 23.9331C16.0599 23.8968 16.0822 23.8544 16.0948 23.8087C16.1074 23.763 16.1101 23.7152 16.1025 23.6684C16.095 23.6216 16.0775 23.577 16.0512 23.5376C16.0248 23.4982 15.9903 23.4649 15.95 23.44C15.54 23.06 15.1 22.69 14.66 22.34C14 21.82 13.32 21.34 12.66 20.82C12.3425 20.5679 12.0084 20.3374 11.66 20.13L11.41 20.03C11.49 19.5 11.56 18.97 11.59 18.43C11.605 18.1369 11.605 17.8431 11.59 17.55C11.6052 17.2569 11.6052 16.9631 11.59 16.67C11.59 16.26 11.49 15.86 11.44 15.46L16.87 15.38C18.47 15.38 20.05 15.44 21.63 15.44C22.32 15.44 23.01 15.44 23.7 15.39C23.7469 15.3882 23.7929 15.3761 23.8346 15.3546C23.8763 15.333 23.9128 15.3026 23.9414 15.2653C23.9701 15.2281 23.9902 15.1851 24.0003 15.1392C24.0104 15.0933 24.0103 15.0458 24 15C23.9899 14.916 23.948 14.8391 23.8829 14.7851C23.8178 14.7312 23.7344 14.7043 23.65 14.71Z" fill="black"/>
<path fill-rule="evenodd" clip-rule="evenodd" d="M8.48002 7.59997C8.45596 7.3909 8.39502 7.18776 8.30002 6.99997C8.138 6.799 7.92656 6.64356 7.68639 6.5489C7.44623 6.45423 7.18559 6.42359 6.93002 6.45997C6.59935 6.4672 6.27462 6.54923 5.98019 6.69991C5.68577 6.85059 5.42929 7.066 5.23002 7.32997C5.15416 7.50676 5.11667 7.69763 5.12002 7.88997C5.12002 8.18997 5.18002 8.53997 5.19002 8.76997C5.19002 9.22997 5.19002 9.67997 5.29002 10.13C5.36002 10.8 5.44002 11.47 5.55002 12.13V12.45C5.55481 12.4879 5.56732 12.5244 5.58677 12.5574C5.60622 12.5903 5.63221 12.6188 5.66312 12.6413C5.69404 12.6638 5.72923 12.6797 5.76654 12.6881C5.80384 12.6965 5.84246 12.6971 5.88002 12.69C7.18002 12.59 8.49002 12.59 9.79002 12.56C9.79002 12.56 11.23 12.56 11.48 12.5C12.29 12.5 13.09 12.38 13.89 12.3C14.69 12.22 15.46 12.05 16.24 11.94C16.57 11.94 16.89 11.86 17.24 11.85C17.3159 11.8439 17.3871 11.8111 17.441 11.7572C17.4948 11.7034 17.5277 11.6322 17.5337 11.5563C17.5397 11.4804 17.5185 11.4049 17.4738 11.3432C17.4292 11.2816 17.364 11.2379 17.29 11.22C17.3374 11.1977 17.3785 11.1642 17.4099 11.1224C17.4413 11.0805 17.4619 11.0316 17.47 10.98L17.76 7.19997C17.81 6.66997 17.89 6.09997 17.9 5.53997C17.9203 5.13447 17.89 4.72802 17.81 4.32997C17.7691 4.12462 17.6784 3.93244 17.5459 3.7703C17.4134 3.60816 17.2431 3.481 17.05 3.39997C16.622 3.27447 16.1729 3.23705 15.73 3.28997C15.4548 3.29017 15.1814 3.33405 14.92 3.41997C14.7456 3.48342 14.6 3.60771 14.51 3.76997C14.3878 4.06435 14.3299 4.38141 14.34 4.69997C14.34 5.26997 14.48 5.97997 14.5 6.34997C14.57 7.19997 14.63 8.05997 14.66 8.91997C14.69 9.77997 14.71 10.49 14.74 11.28H13.85H13.23L13.31 8.78997C13.3329 8.51712 13.3329 8.24283 13.31 7.96997C13.2526 7.77886 13.1457 7.60634 13 7.46997C12.8923 7.34846 12.7418 7.27323 12.58 7.25997C12.2271 7.23705 11.873 7.23705 11.52 7.25997H10.73C10.5905 7.27211 10.4593 7.3311 10.3576 7.42733C10.2559 7.52357 10.1898 7.65138 10.17 7.78997V9.12997C10.17 9.87997 10.3 10.63 10.36 11.37H9.78002C9.28002 11.37 8.78002 11.49 8.28002 11.56L8.39002 8.55997C8.43536 8.2416 8.46539 7.92123 8.48002 7.59997ZM15.48 8.36997V6.27997C15.48 5.96997 15.41 5.40997 15.4 4.89997C15.3832 4.71702 15.3832 4.53292 15.4 4.34997H15.71C15.9763 4.32997 16.2437 4.32997 16.51 4.34997C16.5602 4.35783 16.6067 4.38144 16.6426 4.41738C16.6786 4.45332 16.7022 4.49975 16.71 4.54997C16.7972 4.87612 16.8409 5.21237 16.84 5.54997V7.15997V10.92C16.8385 10.9757 16.8515 11.0308 16.8778 11.0799C16.9041 11.129 16.9428 11.1704 16.99 11.2H16.22L15.35 11.25C15.39 10.27 15.44 9.32997 15.48 8.36997ZM11.28 8.36997L11.59 8.41997C11.66 8.41997 11.95 8.31997 12.18 8.26997C12.18 8.44997 12.35 8.77997 12.37 8.91997L12.55 11.34H12.25L11.11 11.41L11.28 8.36997ZM6.13002 12.05V10.4C6.13002 9.85997 6.13002 9.29997 6.20002 8.74997V7.74997H6.28002L6.56002 7.63997C6.85002 7.55997 7.49002 7.39997 7.40002 7.63997C7.43972 7.72843 7.46342 7.82323 7.47002 7.91997V8.80997L7.65002 11.81C7.15002 11.85 6.64002 12 6.13002 12.05Z" fill="black"/>
</g>
<defs>
<clipPath id="clip0_1051_8858">
<rect width="24" height="24" fill="white"/>
</clipPath>
</defs>
</svg>
