<svg width="24" height="24" viewBox="0 0 24 24" fill="none" xmlns="http://www.w3.org/2000/svg">
<g clip-path="url(#clip0_1049_7841)">
<path fill-rule="evenodd" clip-rule="evenodd" d="M8.74999 19.34C7.318 19.3916 5.88416 19.3382 4.45999 19.18C3.55999 19.18 2.09999 19.26 1.23999 19.18C1.23999 19.08 1.15999 18.94 1.14999 18.86C1.13999 18.78 0.899994 15.48 0.839994 15.36C0.820266 15.3 0.782093 15.2477 0.730916 15.2107C0.67974 15.1736 0.618173 15.1537 0.554994 15.1537C0.491814 15.1537 0.430248 15.1736 0.379071 15.2107C0.327895 15.2477 0.289722 15.3 0.269994 15.36C0.33163 16.508 0.291473 17.6591 0.149994 18.8C-6.21378e-06 20.77 0.819994 20.36 7.26999 20.19L8.79999 20C8.87304 19.9769 8.93612 19.9297 8.97901 19.8662C9.0219 19.8027 9.04209 19.7266 9.0363 19.6502C9.03051 19.5738 8.99909 19.5016 8.94712 19.4453C8.89515 19.389 8.82569 19.3519 8.74999 19.34Z" fill="black"/>
<path fill-rule="evenodd" clip-rule="evenodd" d="M2.17 10.66C2.0823 10.6694 2.00086 10.7099 1.94036 10.7741C1.87985 10.8382 1.84426 10.9219 1.84 11.01C1.84 11.57 5.34 11.43 6.73 11.4C6.33083 12.0491 6.15848 12.8124 6.24 13.57C4.26404 13.6206 2.29334 13.7977 0.339998 14.1C0.276489 14.1637 0.240829 14.25 0.240829 14.34C0.240829 14.43 0.276489 14.5163 0.339998 14.58C0.519998 14.76 0.969998 14.67 1.17 14.67C2.28 14.67 4.3 14.77 6.33 14.72C8.89 14.67 11.17 14.42 12.04 14.42C12.1196 14.42 12.1959 14.3884 12.2521 14.3321C12.3084 14.2759 12.34 14.1996 12.34 14.12C12.34 14.0404 12.3084 13.9641 12.2521 13.9079C12.1959 13.8516 12.1196 13.82 12.04 13.82C11.71 13.82 11.84 13.82 11.79 13.68C11.8154 13.1977 11.7396 12.7154 11.5673 12.2641C11.3951 11.8129 11.1303 11.4027 10.79 11.06L11.5 11C11.5796 11 11.6559 10.9684 11.7121 10.9121C11.7684 10.8559 11.8 10.7796 11.8 10.7C11.8 10.6204 11.7684 10.5441 11.7121 10.4879C11.6559 10.4316 11.5796 10.4 11.5 10.4L10.42 10.34C10.42 10.34 2.29 10.64 2.17 10.66ZM11.08 13.72C9.71 13.61 8.5 13.56 7.08 13.57C7.33 12.88 7.28 13.1 7.36 12.83C7.47893 12.353 7.52279 11.8605 7.49 11.37C7.98 11.37 8.33 11.37 9.87 11.17C10.74 12.48 10.09 12 11.08 13.72Z" fill="black"/>
<path fill-rule="evenodd" clip-rule="evenodd" d="M14.78 3.72C14.8498 3.00705 14.7819 2.28732 14.58 1.6C14.47 1.27 13.83 1.27 13.83 1.6C13.7099 2.32368 13.653 3.05645 13.66 3.79C12.77 3.85 12.87 3.85 10.52 4.12C10.52 3.03 10.27 1.73 10.28 1.67C10.28 1.18 9.67 1.34 9.65 1.67C9.40195 4.23067 9.40195 6.80933 9.65 9.37C9.75 10.03 10.23 9.93 10.41 9.46C10.4582 9.04499 10.4849 8.62777 10.49 8.21C11.49 8.5 12.41 8.12 12.39 7.75C12.3754 7.65819 12.3276 7.57492 12.2558 7.51595C12.1839 7.45698 12.0929 7.4264 12 7.43C11.5166 7.33137 11.023 7.29108 10.53 7.31C10.53 6.14 10.59 6 10.53 4.82C11.5788 4.94065 12.636 4.97076 13.69 4.91C13.75 5.47 13.83 6.02 13.91 6.57C13.91 6.66017 13.9458 6.74665 14.0096 6.81042C14.0733 6.87418 14.1598 6.91 14.25 6.91C14.3402 6.91 14.4267 6.87418 14.4904 6.81042C14.5542 6.74665 14.59 6.66017 14.59 6.57C14.59 5.99 14.69 5.42 14.73 4.85C15.8 4.72 15.99 4.71 16.25 4.68C16.71 4.47 16.71 3.89 16.18 3.78L14.78 3.72Z" fill="black"/>
<path fill-rule="evenodd" clip-rule="evenodd" d="M17.35 0.93C16.72 0 15.07 0.09 14.08 0C13.35 0 3.09 0.11 1.26 0.43C1.15148 0.438382 1.04634 0.471599 0.952712 0.527085C0.859079 0.582571 0.779456 0.65884 0.719995 0.75C0.565993 1.11946 0.471488 1.51097 0.439995 1.91C0.359995 2.78 0.609995 10.59 0.889995 10.91C0.917081 10.9384 0.94966 10.9611 0.985759 10.9766C1.02186 10.992 1.06072 11 1.1 11C1.13927 11 1.17813 10.992 1.21423 10.9766C1.25033 10.9611 1.28291 10.9384 1.31 10.91C1.51 10.72 1.03 3.26 1.52 1.53C3.05 1.3 10.7 1.2 12.84 1.12H14.63C15.11 1.12 16.29 1.12 16.57 1.52C16.99 2.1 16.85 5.73 16.73 9.21C16.7181 9.30017 16.7424 9.39139 16.7978 9.4636C16.8531 9.5358 16.9348 9.58307 17.025 9.595C17.1152 9.60693 17.2064 9.58256 17.2786 9.52724C17.3508 9.47191 17.3981 9.39017 17.41 9.3C17.5499 7.99154 17.61 6.67577 17.59 5.36C17.7 4 18.18 2.14 17.35 0.93Z" fill="black"/>
<path fill-rule="evenodd" clip-rule="evenodd" d="M5.26999 16.6C3.99999 16.7 2.89999 17.1 2.44999 17.03C2.37175 17.0101 2.28881 17.0221 2.21942 17.0634C2.15004 17.1046 2.09988 17.1718 2.07999 17.25C2.0601 17.3282 2.0721 17.4112 2.11336 17.4806C2.15462 17.55 2.22175 17.6001 2.29999 17.62C3.59979 17.8094 4.92019 17.8094 6.21999 17.62C6.47999 17.62 6.72999 17.53 6.98999 17.5L8.55999 17.34C8.60464 17.34 8.64885 17.3312 8.6901 17.3141C8.73135 17.297 8.76883 17.272 8.8004 17.2404C8.83198 17.2088 8.85702 17.1714 8.87411 17.1301C8.89119 17.0889 8.89999 17.0446 8.89999 17C8.89999 16.9553 8.89119 16.9111 8.87411 16.8699C8.85702 16.8286 8.83198 16.7912 8.8004 16.7596C8.76883 16.728 8.73135 16.703 8.6901 16.6859C8.64885 16.6688 8.60464 16.66 8.55999 16.66C7.46761 16.5372 6.36612 16.5172 5.26999 16.6Z" fill="black"/>
<path fill-rule="evenodd" clip-rule="evenodd" d="M23.58 16.71C23 14.11 20.58 13.4 18.08 14.63C17.4644 12.707 16.5897 10.8768 15.48 9.19C14.28 7.76 13.07 8.39 12.84 9.77C12.53 11.62 13.58 15.03 14.19 17.01C13.03 16.36 11.28 15.92 10.77 17.01C9.89999 19 12 20.6 13.55 22.29C13.66 22.4 14.94 23.53 15.44 23.87C15.94 24.21 16.24 23.87 16.07 23.53C15.3439 23.041 14.6733 22.4743 14.07 21.84C12.72 20.23 10.92 18.73 11.57 17.42C11.87 16.82 14.45 18.02 14.72 18.72C14.84 19.03 15.96 19.28 15.72 18.31C15.48 17.34 13.29 10.45 14.14 9.57C14.41 9.29 16 11.57 17.35 15.52C17.3748 15.5936 17.4164 15.6603 17.4715 15.715C17.5267 15.7697 17.5937 15.8108 17.6675 15.835C17.7412 15.8593 17.8196 15.866 17.8964 15.8547C17.9732 15.8435 18.0463 15.8144 18.11 15.77C18.7549 15.333 19.496 15.0586 20.27 14.97C20.6372 14.9265 21.0096 14.9698 21.357 15.0967C21.7044 15.2235 22.0171 15.4301 22.27 15.7C23.27 16.7 23.27 20.8 23.15 21.94C23.1407 22.0302 23.1676 22.1203 23.2248 22.1907C23.282 22.261 23.3648 22.3057 23.455 22.315C23.5452 22.3243 23.6353 22.2974 23.7057 22.2402C23.776 22.183 23.8207 22.1002 23.83 22.01C23.968 20.2398 23.884 18.4593 23.58 16.71Z" fill="black"/>
<path fill-rule="evenodd" clip-rule="evenodd" d="M3.55 4.74C3.55 5.06 3.86 5.35 4 5.52C4.64 6.29 5.84 6.31 6.56 6.7C7.03 6.93 7.3 6.7 6.56 7.02C5.95 7.3 4.44 7.67 4.3 7.02C4.2808 6.93283 4.22809 6.85671 4.15325 6.80807C4.07842 6.75942 3.98745 6.74216 3.9 6.76C3.35 6.86 3.57 8.1 5.11 8.18C4.94 8.52 5.28 9.44 5.62 9.44C5.96 9.44 6.34 8.55 6.07 8.12C6.35898 8.08014 6.64357 8.01318 6.92 7.92C7.48 7.74 7.92 7.54 8.05 6.99C8.18 6.44 7.65 6 7.1 5.69C6.55 5.38 5.15 5.14 4.81 4.78C4.81 4.78 4.67 4.55 4.59 4.54C4.79 3.92 6.59 3.68 6.68 3.97C6.70254 4.04691 6.75472 4.11172 6.82504 4.15017C6.89537 4.18861 6.97809 4.19754 7.055 4.175C7.13191 4.15246 7.19672 4.10028 7.23516 4.02996C7.27361 3.95963 7.28254 3.87691 7.26 3.8C7.15 3.35 6.57 3.17 6.11 3.13C6.19873 2.89315 6.19442 2.63148 6.09794 2.39768C6.00145 2.16388 5.81995 1.97533 5.59 1.87C5.47553 1.9278 5.37508 2.00991 5.29567 2.1106C5.21626 2.21129 5.15982 2.32811 5.13029 2.45289C5.10076 2.57768 5.09886 2.70741 5.12472 2.83301C5.15058 2.9586 5.20358 3.07703 5.28 3.18C4.39 3.36 3.54 3.84 3.55 4.74Z" fill="black"/>
</g>
<defs>
<clipPath id="clip0_1049_7841">
<rect width="24" height="24" fill="white"/>
</clipPath>
</defs>
</svg>
