<svg width="24" height="24" viewBox="0 0 24 24" fill="none" xmlns="http://www.w3.org/2000/svg">
<g clip-path="url(#clip0_1044_5194)">
<path fill-rule="evenodd" clip-rule="evenodd" d="M21.26 7.46C21.9091 6.59452 22.26 5.54186 22.26 4.46C21.92 0.460004 14.75 -1.89 12.26 2.92C12.1161 2.73782 11.9479 2.57631 11.76 2.44C11.0566 1.92588 10.2172 1.63059 9.34685 1.59107C8.47648 1.55155 7.61379 1.76956 6.86669 2.21782C6.11959 2.66608 5.52126 3.32469 5.14654 4.11125C4.77183 4.89782 4.63738 5.77742 4.76 6.64C4.16645 6.54833 3.56005 6.58721 2.98307 6.75394C2.40609 6.92067 1.87241 7.21123 1.41925 7.60537C0.96608 7.99951 0.604329 8.48774 0.359212 9.03603C0.114094 9.58432 -0.00849125 10.1795 9.44448e-07 10.78C0.0278453 11.5975 0.232544 12.3992 0.600001 13.13C1.17 14.24 3.4 15.08 4.06 14.75C4.12065 14.7076 4.16414 14.6449 4.18261 14.5733C4.20108 14.5016 4.19331 14.4257 4.1607 14.3593C4.12809 14.2929 4.0728 14.2403 4.00481 14.2111C3.93683 14.1819 3.86063 14.1779 3.79 14.2C3.28713 14.1703 2.79676 14.0315 2.35295 13.7932C1.90914 13.5549 1.52253 13.2228 1.22 12.82C-0.219999 9.82 1.82 7.22 4.59 7.57C4.8807 7.63063 5.15834 7.74236 5.41 7.9C5.51836 7.9448 5.63919 7.94925 5.75055 7.91256C5.86191 7.87586 5.95642 7.80046 6.01693 7.70002C6.07743 7.59958 6.09991 7.48078 6.08029 7.36518C6.06067 7.24959 6.00025 7.14485 5.91 7.07C5.66 6.83 5.72 6.27 5.73 5.89C5.76493 5.28577 5.9629 4.70228 6.30287 4.20155C6.64285 3.70081 7.11214 3.30154 7.66086 3.04615C8.20959 2.79076 8.81725 2.6888 9.41928 2.75111C10.0213 2.81341 10.5952 3.03766 11.08 3.4C11.83 3.92 11.6 4.86 12.33 4.84C12.79 4.84 12.83 4.54 13.25 3.51C15.07 -0.299996 20.89 1.59 21.25 4.51C21.24 5.4716 20.9131 6.40306 20.32 7.16C20.32 7.16 19.77 7.49 19.83 7.63C19.7651 7.67917 19.7124 7.74264 19.6759 7.81548C19.6395 7.88832 19.6204 7.96857 19.62 8.05C19.62 8.17 19.99 8.73 20.43 8.39C23.23 7.81 24 12 22.22 13.51C21.401 14.1683 20.4325 14.6147 19.4 14.81C19.3195 14.8377 19.2519 14.8937 19.2098 14.9676C19.1676 15.0415 19.1538 15.1282 19.171 15.2116C19.1881 15.2949 19.2351 15.3691 19.303 15.4204C19.3709 15.4716 19.4552 15.4964 19.54 15.49C20.6962 15.2927 21.7854 14.8117 22.71 14.09C24.93 12.29 24.19 7.8 21.26 7.46Z" fill="black"/>
<path fill-rule="evenodd" clip-rule="evenodd" d="M7 15.12C5.35 17.55 6.2 21.12 7.84 22.12C7.90631 22.1651 7.98781 22.182 8.06657 22.167C8.14534 22.152 8.21492 22.1063 8.26 22.04C8.30509 21.9737 8.32199 21.8922 8.30699 21.8134C8.29199 21.7347 8.24631 21.6651 8.18 21.62C6.88 20.71 6.29 17.62 7.76 15.62C8.1873 15.0217 8.744 14.5275 9.38867 14.1741C10.0334 13.8207 10.7494 13.6172 11.4836 13.5788C12.2178 13.5403 12.9512 13.6679 13.6293 13.9521C14.3073 14.2362 14.9126 14.6696 15.4 15.22C17.81 18.08 16.4 22.42 12.13 22.92C11.3539 23.0278 10.5639 22.9733 9.81 22.76C9.76733 22.7456 9.72222 22.7397 9.67726 22.7426C9.6323 22.7456 9.58837 22.7574 9.54798 22.7774C9.50758 22.7974 9.47152 22.8251 9.44184 22.859C9.41216 22.8929 9.38945 22.9323 9.375 22.975C9.36056 23.0177 9.35466 23.0628 9.35765 23.1077C9.36064 23.1527 9.37245 23.1966 9.39241 23.237C9.41238 23.2774 9.4401 23.3135 9.47401 23.3432C9.50791 23.3728 9.54733 23.3956 9.59 23.41C10.4335 23.6885 11.3267 23.7839 12.21 23.69C13.2653 23.6669 14.2922 23.3439 15.1707 22.7587C16.0492 22.1735 16.743 21.3503 17.1709 20.3854C17.5988 19.4204 17.7432 18.3536 17.5873 17.3097C17.4313 16.2657 16.9813 15.2877 16.29 14.49C15.7025 13.8019 14.9621 13.2607 14.128 12.9099C13.294 12.559 12.3894 12.4082 11.4866 12.4694C10.5838 12.5306 9.70791 12.8022 8.92887 13.2624C8.14982 13.7227 7.48926 14.3588 7 15.12Z" fill="black"/>
<path fill-rule="evenodd" clip-rule="evenodd" d="M10.51 20.48C11.65 20.55 13.01 17.36 13.51 16.33C13.6611 16.1715 13.7559 15.9677 13.78 15.75C13.7736 15.6769 13.745 15.6076 13.6981 15.5512C13.6512 15.4948 13.5881 15.4541 13.5174 15.4345C13.4468 15.4149 13.3718 15.4174 13.3025 15.4416C13.2333 15.4658 13.1731 15.5106 13.13 15.57C12.89 15.86 10.41 19.46 10.47 19.57C10.27 19.57 9.27 18.4 9.12 18.3C8.97 18.2 8.54 18.48 8.77 18.81C9.16 19.4 9.84 20.45 10.51 20.48Z" fill="black"/>
</g>
<defs>
<clipPath id="clip0_1044_5194">
<rect width="24" height="24" fill="white"/>
</clipPath>
</defs>
</svg>
