<svg width="24" height="24" viewBox="0 0 24 24" fill="none" xmlns="http://www.w3.org/2000/svg">
<path fill-rule="evenodd" clip-rule="evenodd" d="M8.00001 19.68C7.8702 19.4359 7.71248 19.2077 7.53001 19C7.27728 18.7387 6.99544 18.5071 6.69001 18.31C7.02999 17.9587 7.2907 17.5386 7.45458 17.078C7.61846 16.6174 7.68169 16.1271 7.64001 15.64C7.63472 14.8063 7.29914 14.0087 6.70681 13.422C6.11448 12.8353 5.31372 12.5073 4.48001 12.51C3.58827 12.4882 2.7237 12.8178 2.07271 13.4277C1.42173 14.0375 1.03647 14.8787 1.00001 15.77C0.983995 16.3315 1.1314 16.8855 1.42431 17.3649C1.71722 17.8442 2.14303 18.2281 2.65001 18.47C2.22976 18.6921 1.83134 18.9532 1.46001 19.25C1.10377 19.557 0.793882 19.9141 0.540007 20.31C0.311084 20.6551 0.154127 21.0429 0.0785251 21.4502C0.00292335 21.8574 0.0102297 22.2757 0.100007 22.68C0.0999217 22.7237 0.108812 22.7671 0.12613 22.8072C0.143447 22.8474 0.168824 22.8836 0.20069 22.9136C0.232556 22.9436 0.270235 22.9668 0.311398 22.9816C0.352561 22.9965 0.396333 23.0027 0.440007 23C0.524044 22.9876 0.600049 22.9432 0.652204 22.8761C0.704358 22.8091 0.728645 22.7245 0.720007 22.64C0.715376 22.1757 0.855155 21.7214 1.12001 21.34C1.37771 20.9431 1.67236 20.5714 2.00001 20.23C2.49001 19.69 3.00001 19.15 3.42001 18.74C3.72454 18.8161 4.03628 18.8596 4.35001 18.87C4.41645 18.8575 4.47644 18.8222 4.5196 18.7701C4.56277 18.7181 4.58639 18.6526 4.58639 18.585C4.58639 18.5174 4.56277 18.4519 4.5196 18.3998C4.47644 18.3478 4.41645 18.3125 4.35001 18.3C2.58001 18.12 1.81001 17 1.90001 15.81C1.96829 15.1795 2.27843 14.6 2.76519 14.1934C3.25195 13.7868 3.8774 13.5849 4.51001 13.63C5.08747 13.6192 5.64581 13.837 6.06347 14.2359C6.48112 14.6349 6.72428 15.1826 6.74001 15.76C6.85906 16.3456 6.74344 16.9546 6.41801 17.4558C6.09259 17.957 5.58339 18.3104 5.00001 18.44C4.91415 18.45 4.83567 18.4934 4.78144 18.5607C4.72721 18.628 4.70156 18.7139 4.71001 18.8C4.72465 18.883 4.76958 18.9576 4.8361 19.0093C4.90261 19.061 4.98597 19.0862 5.07001 19.08C5.41874 19.0413 5.75757 18.9397 6.07001 18.78C6.30913 19.062 6.5296 19.3593 6.73001 19.67C6.85001 19.85 6.96001 20.04 7.06001 20.22C7.16001 20.4 7.28001 20.59 7.38001 20.78C7.6262 21.2524 7.83355 21.744 8.00001 22.25C8.01919 22.3324 8.06933 22.4044 8.14005 22.4509C8.21078 22.4974 8.29669 22.515 8.38001 22.5C8.42213 22.493 8.46235 22.4773 8.49815 22.454C8.53394 22.4307 8.56453 22.4003 8.588 22.3646C8.61148 22.3289 8.62732 22.2888 8.63455 22.2467C8.64178 22.2046 8.64023 22.1614 8.63001 22.12C8.59624 21.537 8.49558 20.9599 8.33001 20.4C8.24091 20.1509 8.1305 19.91 8.00001 19.68Z" fill="black"/>
<path fill-rule="evenodd" clip-rule="evenodd" d="M23.69 20.4C23.6074 20.1516 23.5036 19.9107 23.38 19.68C23.2508 19.4503 23.0965 19.2357 22.92 19.04C22.6673 18.7786 22.3854 18.5471 22.08 18.35C22.429 18.003 22.6989 17.5849 22.8715 17.1241C23.0441 16.6633 23.1152 16.1707 23.08 15.68C23.0747 14.8463 22.7391 14.0487 22.1468 13.462C21.5545 12.8752 20.7537 12.5473 19.92 12.55C19.0315 12.5226 18.1676 12.8443 17.5133 13.4462C16.8591 14.0481 16.4667 14.8822 16.42 15.77C16.3952 16.3244 16.5312 16.8742 16.8115 17.3532C17.0918 17.8322 17.5045 18.22 18 18.47C17.5784 18.6897 17.1798 18.951 16.81 19.25C16.4512 19.5544 16.1409 19.9118 15.89 20.31C15.6611 20.6551 15.5041 21.0429 15.4285 21.4501C15.3529 21.8573 15.3602 22.2756 15.45 22.68C15.4694 22.7565 15.5164 22.8232 15.5821 22.8672C15.6477 22.9112 15.7273 22.9293 15.8055 22.9182C15.8837 22.907 15.955 22.8673 16.0057 22.8067C16.0564 22.7461 16.0828 22.6689 16.08 22.59C16.084 22.1254 16.2268 21.6727 16.49 21.29C16.7376 20.9121 17.0187 20.5573 17.33 20.23C17.82 19.69 18.33 19.15 18.75 18.74C19.0545 18.816 19.3663 18.8596 19.68 18.87C19.7465 18.8575 19.8064 18.8221 19.8496 18.7701C19.8928 18.718 19.9164 18.6526 19.9164 18.585C19.9164 18.5173 19.8928 18.4519 19.8496 18.3998C19.8064 18.3478 19.7465 18.3125 19.68 18.3C18 18.12 17.2 17 17.29 15.81C17.3583 15.1794 17.6684 14.5999 18.1552 14.1934C18.642 13.7868 19.2674 13.5848 19.9 13.63C20.4775 13.6192 21.0358 13.837 21.4535 14.2359C21.8711 14.6348 22.1143 15.1826 22.13 15.76C22.248 16.3512 22.1269 16.9652 21.7933 17.4675C21.4597 17.9697 20.9408 18.3194 20.35 18.44C20.308 18.4446 20.2673 18.4574 20.2302 18.4777C20.1932 18.498 20.1605 18.5255 20.134 18.5584C20.1075 18.5914 20.0878 18.6292 20.076 18.6698C20.0641 18.7104 20.0604 18.7529 20.065 18.795C20.0696 18.837 20.0824 18.8777 20.1028 18.9147C20.1231 18.9518 20.1505 18.9845 20.1835 19.011C20.2165 19.0374 20.2543 19.0572 20.2949 19.069C20.3355 19.0808 20.378 19.0845 20.42 19.08C20.7688 19.0413 21.1076 18.9396 21.42 18.78C21.6591 19.062 21.8796 19.3592 22.08 19.67C22.2 19.85 22.31 20.04 22.41 20.22C22.51 20.4 22.63 20.59 22.73 20.78C22.9728 21.2526 23.1768 21.7443 23.34 22.25C23.3592 22.3324 23.4093 22.4043 23.4801 22.4509C23.5508 22.4974 23.6367 22.515 23.72 22.5C23.7615 22.4916 23.8009 22.4751 23.836 22.4515C23.871 22.4278 23.901 22.3974 23.9243 22.3621C23.9475 22.3268 23.9635 22.2872 23.9714 22.2456C23.9792 22.204 23.9788 22.1613 23.97 22.12C23.9428 21.5378 23.8488 20.9607 23.69 20.4Z" fill="black"/>
<path fill-rule="evenodd" clip-rule="evenodd" d="M12.93 6.44998C12.78 6.74998 12.65 7.04998 12.49 7.44998L12.16 8.31998L11.93 8.99998L11.78 9.49998L11.14 8.92998L10.34 8.22998L9.07001 7.05998C9.04394 7.03337 9.01282 7.01224 8.97848 6.9978C8.94414 6.98337 8.90726 6.97594 8.87001 6.97594C8.83276 6.97594 8.79588 6.98337 8.76154 6.9978C8.7272 7.01224 8.69608 7.03337 8.67001 7.05998C8.6434 7.08605 8.62226 7.11717 8.60783 7.15151C8.5934 7.18585 8.58597 7.22273 8.58597 7.25998C8.58597 7.29723 8.5934 7.33411 8.60783 7.36845C8.62226 7.40279 8.6434 7.43391 8.67001 7.45998L9.85001 8.75998L10.58 9.51998L11.3 10.29C11.4 10.39 11.5 10.65 11.59 10.73C11.6878 10.8143 11.811 10.8636 11.94 10.87C12.0229 10.8696 12.1046 10.8506 12.179 10.8142C12.2535 10.7778 12.3188 10.7251 12.37 10.66C12.4824 10.5246 12.5734 10.3728 12.64 10.21C12.77 9.91998 12.86 9.56998 12.94 9.34998L13.18 8.66998L13.51 7.84998L14.35 5.99998C14.7715 5.17908 15.2528 4.39028 15.79 3.63998C16.325 2.90529 16.9424 2.23426 17.63 1.63998C17.6963 1.58694 17.7388 1.50973 17.7482 1.42534C17.7576 1.34095 17.7331 1.25629 17.68 1.18998C17.627 1.12368 17.5498 1.08116 17.4654 1.07178C17.381 1.06241 17.2963 1.08694 17.23 1.13998C16.4528 1.72057 15.7478 2.392 15.13 3.13998C14.5065 3.88526 13.9414 4.67762 13.44 5.50998C13.24 5.85998 13.08 6.14998 12.93 6.44998Z" fill="black"/>
<path fill-rule="evenodd" clip-rule="evenodd" d="M19.81 6.59C19.6241 6.11436 19.3788 5.66412 19.08 5.25C18.6481 4.65837 18.1841 4.09085 17.69 3.55C17.6423 3.49298 17.5738 3.45726 17.4998 3.45069C17.4257 3.44413 17.352 3.46726 17.295 3.515C17.238 3.56274 17.2023 3.63117 17.1957 3.70525C17.1891 3.77933 17.2123 3.85298 17.26 3.91C17.7209 4.45256 18.1515 5.02008 18.55 5.61C18.8095 5.98758 19.018 6.39779 19.17 6.83C19.4347 7.48987 19.4981 8.21334 19.3522 8.90918C19.2062 9.60502 18.8575 10.2421 18.35 10.74C17.5115 11.4556 16.5342 11.9903 15.4793 12.3104C14.4244 12.6304 13.3148 12.729 12.22 12.6C9.28001 12.45 7.29001 11.71 6.09001 10.67C5.55929 10.259 5.16474 9.69752 4.95782 9.05892C4.7509 8.42032 4.74121 7.73419 4.93001 7.09C5.68001 4.55 9.14001 2.4 14.17 3.17C14.212 3.17722 14.2551 3.1761 14.2967 3.16669C14.3382 3.15728 14.3776 3.13977 14.4124 3.11516C14.4472 3.09056 14.4769 3.05933 14.4996 3.02327C14.5224 2.98721 14.5378 2.94702 14.545 2.905C14.5522 2.86298 14.5511 2.81994 14.5417 2.77835C14.5323 2.73676 14.5148 2.69744 14.4902 2.66262C14.4656 2.62779 14.4343 2.59816 14.3983 2.5754C14.3622 2.55265 14.322 2.53722 14.28 2.53C8.73001 1.53 4.91001 4 4.00001 6.8C3.38001 8.71 4.00001 10.8 6.39001 12.21C8.16754 13.1453 10.1416 13.6457 12.15 13.67C13.3916 13.7754 14.6415 13.6218 15.8206 13.219C16.9998 12.8162 18.0824 12.173 19 11.33C19.5884 10.7084 19.9793 9.92642 20.1235 9.08278C20.2677 8.23913 20.1586 7.37168 19.81 6.59Z" fill="black"/>
</svg>
