<svg width="24" height="24" viewBox="0 0 24 24" fill="none" xmlns="http://www.w3.org/2000/svg">
<g clip-path="url(#clip0_1050_8281)">
<path fill-rule="evenodd" clip-rule="evenodd" d="M22.72 1.83001C21.5046 1.18286 20.2007 0.717885 18.85 0.450009C15.9591 -0.083168 13.0013 -0.147323 10.09 0.260009C9.09001 0.380009 7.87001 0.500009 7.28001 1.33001C6.85678 2.15281 6.67314 3.07794 6.75001 4.00001C6.30001 8.51001 7.41001 14.69 4.50001 16.1C4.42938 16.1443 4.37747 16.2129 4.35415 16.293C4.33082 16.373 4.33771 16.4588 4.3735 16.5341C4.40929 16.6094 4.47149 16.6689 4.54827 16.7013C4.62506 16.7337 4.71109 16.7368 4.79001 16.71C8.30001 15.16 7.28001 8.71001 7.87001 4.10001C8.00001 3.41001 7.84001 2.49001 8.20001 2.00001C8.56001 1.51001 9.69001 1.43001 10.2 1.36001C15.2 0.590009 17.78 0.920009 20.05 1.44001C14.37 3.25001 19.15 11.75 17.34 17.8C16.49 20.65 14.05 21.62 12.73 21.15C11.6127 20.5373 10.6802 19.636 10.03 18.54C9.36001 17.54 9.35001 17.12 8.87001 17.14C8.01001 17.14 1.55001 17.43 0.710009 17.55C0.410009 17.55 0.170009 17.75 0.130009 18.34C0.0983012 19.6696 0.47146 20.9774 1.20001 22.09C1.5384 22.5666 1.96816 22.9711 2.46429 23.2802C2.96043 23.5892 3.51304 23.7965 4.09001 23.89C6.00625 24.06 7.93377 24.06 9.85001 23.89C10.6755 23.7943 11.4916 23.6304 12.29 23.4C12.3278 23.3907 12.3633 23.374 12.3944 23.3507C12.4256 23.3274 12.4517 23.2981 12.4713 23.2645C12.4909 23.2309 12.5035 23.1937 12.5085 23.1552C12.5134 23.1166 12.5105 23.0774 12.5 23.04C12.36 22.54 12 23.04 9.79001 23.25C7.94101 23.3852 6.08365 23.3551 4.24001 23.16C2.63001 22.82 1.43001 21.77 1.05001 19.23V18.51C1.76001 18.39 4.60001 18.34 8.56001 18.25C8.87132 18.8452 9.23615 19.4109 9.65001 19.94C11.2 21.78 12.6 23 14.9 22.12C19.38 20.43 19.12 15.12 18.56 10.39C18.22 7.44001 17.56 4.44001 19.05 3.04001C20.3 1.85001 22.22 1.59001 22.83 3.50001C23.0724 4.44978 23.1468 5.4346 23.05 6.41001C22.97 6.79001 22.86 6.87001 22.53 6.95001C21.4136 7.17554 20.285 7.33581 19.15 7.43001C19.0598 7.43001 18.9734 7.46583 18.9096 7.52959C18.8458 7.59335 18.81 7.67983 18.81 7.77001C18.81 7.86018 18.8458 7.94666 18.9096 8.01042C18.9734 8.07419 19.0598 8.11001 19.15 8.11001C20.1296 8.05377 21.1048 7.93688 22.07 7.76001C23.43 7.59001 23.84 7.31001 23.85 5.56001C23.86 4.28001 23.71 2.65001 22.72 1.83001Z" fill="black"/>
<path fill-rule="evenodd" clip-rule="evenodd" d="M8.00001 13.05C7.92001 13.2 8.00001 13.36 8.17001 13.54C8.91001 14.26 10.35 13.95 11.02 13.83C11.42 13.83 11.41 13.16 11.02 13.16C8.33001 12.65 8.21001 12.7 8.00001 13.05Z" fill="black"/>
<path fill-rule="evenodd" clip-rule="evenodd" d="M8.80002 10.36C9.54002 11.08 10.98 10.77 11.65 10.64C12.04 10.64 12.04 9.97 11.65 9.97C8.94002 9.47 8.82002 9.51 8.65002 9.86C8.54002 10 8.61002 10.18 8.80002 10.36Z" fill="black"/>
<path fill-rule="evenodd" clip-rule="evenodd" d="M11.65 7.00001C12.04 7.00001 12.04 6.33001 11.65 6.33001C8.94 5.82001 8.82 5.87001 8.65 6.21001C8.56 6.37001 8.65 6.53001 8.82 6.71001C9.54 7.41001 11 7.10001 11.65 7.00001Z" fill="black"/>
<path fill-rule="evenodd" clip-rule="evenodd" d="M15.87 7.00001C16.27 7.00001 16.27 6.33001 15.87 6.33001C13.16 5.82001 13.05 5.87001 12.87 6.21001C12.78 6.37001 12.87 6.53001 13.03 6.71001C13.77 7.41001 15.21 7.10001 15.87 7.00001Z" fill="black"/>
<path fill-rule="evenodd" clip-rule="evenodd" d="M12.79 13.92C13.1291 14.1102 13.5034 14.2293 13.89 14.27C14.4117 14.3573 14.9174 14.5225 15.39 14.76C15.78 15.02 15.74 15.47 14.91 15.53C14.2072 15.5798 13.5067 15.4047 12.91 15.03C12.8772 15.0011 12.839 14.979 12.7976 14.9648C12.7562 14.9507 12.7124 14.9449 12.6688 14.9477C12.6252 14.9505 12.5825 14.9618 12.5432 14.9811C12.504 15.0004 12.4689 15.0272 12.44 15.06C12.4111 15.0928 12.389 15.131 12.3748 15.1724C12.3607 15.2138 12.3549 15.2576 12.3577 15.3012C12.3605 15.3449 12.3718 15.3875 12.3911 15.4268C12.4104 15.466 12.4372 15.5011 12.47 15.53C12.885 15.8825 13.379 16.1295 13.91 16.25C13.52 16.87 13.98 17.75 14.29 17.75C14.6 17.75 15.01 16.9 14.77 16.4C15.2506 16.4278 15.7282 16.3093 16.14 16.06C16.2911 15.9564 16.4182 15.8215 16.5127 15.6646C16.6071 15.5076 16.6668 15.3322 16.6877 15.1502C16.7085 14.9681 16.6901 14.7838 16.6335 14.6095C16.577 14.4352 16.4837 14.2751 16.36 14.14C15.7411 13.6155 14.9908 13.2698 14.19 13.14C13.9612 13.1135 13.7341 13.0735 13.51 13.02C13.35 12.94 13.27 12.58 13.79 12.3C14.79 11.75 15.61 12.08 15.79 12.5C15.8228 12.5708 15.8818 12.6261 15.9546 12.6541C16.0274 12.6821 16.1083 12.6806 16.18 12.65C16.7 12.42 15.94 11.32 14.81 11.24C14.8707 10.9771 14.863 10.7031 14.7877 10.444C14.7124 10.185 14.5721 9.94947 14.38 9.76001C14.1 9.76001 13.56 10.55 13.86 11.34C12.05 11.8 12 13.32 12.79 13.92Z" fill="black"/>
</g>
<defs>
<clipPath id="clip0_1050_8281">
<rect width="24" height="24" fill="white"/>
</clipPath>
</defs>
</svg>
