<svg width="24" height="24" viewBox="0 0 24 24" fill="none" xmlns="http://www.w3.org/2000/svg">
<g clip-path="url(#clip0_1050_8186)">
<path fill-rule="evenodd" clip-rule="evenodd" d="M23.8 12.68C23.5759 12.4748 23.3388 12.2844 23.09 12.11C22.66 11.8 22.23 11.51 21.78 11.23C21.431 11.0139 21.0704 10.8169 20.7 10.64C20.97 10.05 21.32 9.47 21.56 8.86C21.6787 8.53717 21.7593 8.20155 21.8 7.86C21.8287 7.56737 21.8287 7.27263 21.8 6.98C21.7777 6.8581 21.7284 6.74274 21.6558 6.64238C21.5831 6.54201 21.4889 6.45919 21.38 6.4C21.2029 6.32676 21.0086 6.30594 20.82 6.34C20.5409 6.40742 20.2669 6.4943 20 6.6L18.65 7.12C18.35 7.23 18.07 7.37 17.79 7.5C17.85 6.9 17.94 6.3 17.98 5.7C17.9992 5.36694 17.9992 5.03306 17.98 4.7C17.9404 4.32893 17.8599 3.96337 17.74 3.61C17.6882 3.50712 17.6118 3.41862 17.5176 3.35233C17.4234 3.28604 17.3143 3.24402 17.2 3.23C16.978 3.22271 16.7598 3.28956 16.58 3.42C16.3137 3.61391 16.0599 3.82432 15.82 4.05L13.62 6C13.3411 4.99656 12.9591 4.02471 12.48 3.1C12.185 2.56695 11.7399 2.1323 11.2 1.85C11.0381 1.79605 10.8624 1.80053 10.7035 1.86264C10.5446 1.92475 10.4124 2.04058 10.33 2.19C10.127 2.57581 9.94665 2.97315 9.78999 3.38L9.08999 5.71C8.38438 5.1185 7.61653 4.60548 6.79999 4.18C6.33407 3.97335 5.82968 3.8677 5.31999 3.87C5.31999 3.87 4.70999 3.98 4.69999 4.53V5.14L4.80999 7.06C4.07999 7.13 3.33999 7.19 2.60999 7.29C2.23999 7.29 1.86999 7.4 1.49999 7.48C1.15517 7.55153 0.819656 7.66225 0.49999 7.81C0.307528 7.90867 0.155474 8.07133 0.0699895 8.27C0.0146557 8.39042 -0.00254653 8.52488 0.0206886 8.65535C0.0439237 8.78583 0.106486 8.90608 0.19999 9C0.29999 9.12 0.60999 9.39 0.639989 9.42C0.85999 9.62 1.08999 9.81 1.32999 9.99C1.68999 10.26 2.05999 10.5 2.43999 10.73L3.15999 11.17L3.30999 11.27L1.46999 12.12C1.14403 12.254 0.829639 12.4145 0.529989 12.6C0.362274 12.7082 0.213601 12.8433 0.0899895 13C0.0409587 13.0924 0.0153213 13.1954 0.0153213 13.3C0.0153213 13.4046 0.0409587 13.5076 0.0899895 13.6C0.29999 14.04 0.74999 14 1.23999 14.18C1.53999 14.27 1.82999 14.35 2.11999 14.41C2.58999 14.51 3.05999 14.58 3.52999 14.66C3.23999 14.87 2.95999 15.07 2.67999 15.31C2.34602 15.5842 2.03498 15.8852 1.74999 16.21C1.56054 16.4326 1.39932 16.6778 1.26999 16.94C1.17284 17.1563 1.1449 17.3973 1.18999 17.63C1.23099 17.7616 1.31156 17.8773 1.42072 17.9614C1.52988 18.0455 1.66232 18.0939 1.79999 18.1H1.99999L2.80999 18.15H4.68999C5.21999 18.15 5.68999 18.15 6.25999 18.07L5.99999 19.24C5.91225 19.5857 5.84546 19.9363 5.79999 20.29C5.7802 20.5463 5.7802 20.8037 5.79999 21.06C5.83058 21.315 5.89794 21.5643 5.99999 21.8C6.08534 21.9578 6.22882 22.0762 6.39999 22.13C6.56188 22.1705 6.73304 22.1491 6.87999 22.07C6.96586 22.0221 7.04632 21.9651 7.11999 21.9L7.74999 21.4C8.14277 21.0101 8.5603 20.6461 8.99999 20.31C9.26611 20.1234 9.54328 19.9531 9.82999 19.8L10.42 20.68C10.7012 21.1177 11.0373 21.5176 11.42 21.87C11.5645 21.9904 11.7325 22.0792 11.9133 22.1309C12.0941 22.1826 12.2837 22.1959 12.47 22.17C12.6467 22.123 12.8042 22.0216 12.92 21.88C13.043 21.7028 13.1565 21.5193 13.26 21.33L14.17 19.83C14.54 20.18 14.88 20.56 15.27 20.9C15.4834 21.093 15.7107 21.2702 15.95 21.43C16.1625 21.5635 16.3868 21.6773 16.62 21.77C16.8079 21.8417 17.0115 21.8624 17.21 21.83C17.3562 21.7922 17.4857 21.7069 17.5781 21.5874C17.6704 21.4679 17.7203 21.321 17.72 21.17V20.52L17.44 18.6C18.2112 18.6813 18.9888 18.6813 19.76 18.6C20.1977 18.5665 20.6219 18.4331 21 18.21C21.1088 18.1179 21.1878 17.9955 21.2269 17.8584C21.2661 17.7213 21.2637 17.5757 21.22 17.44C21.16 17.24 20.94 16.74 20.92 16.68L19.65 14.16C20.32 14.16 20.98 14.25 21.65 14.23C22.0092 14.2114 22.3667 14.1679 22.72 14.1C23.0666 14.0255 23.4026 13.9079 23.72 13.75C23.8048 13.6978 23.8773 13.6279 23.9326 13.545C23.9878 13.4622 24.0244 13.3684 24.04 13.27C24.0487 13.1598 24.0315 13.049 23.9899 12.9466C23.9482 12.8441 23.8832 12.7529 23.8 12.68ZM21.19 13.2C20.54 13.29 19.88 13.33 19.19 13.42C19.0936 13.4252 19.0031 13.4678 18.9377 13.5388C18.8723 13.6098 18.8372 13.7035 18.84 13.8L18.89 14.26L19.69 17.13L19.86 17.4C19.6405 17.489 19.4127 17.556 19.18 17.6C17.18 18.01 16.66 17.6 16.67 18.15L16.49 20.35C16.215 20.2252 15.9508 20.0781 15.7 19.91C15.26 19.62 14.84 19.31 14.4 19.03C14.3338 18.9756 14.2507 18.9458 14.165 18.9458C14.0793 18.9458 13.9962 18.9756 13.93 19.03C13.93 19.03 13.86 19.03 13.83 19.08C11.75 21.08 12.2 20.88 11.93 20.66C11.66 20.44 11.3 20.11 11.16 19.98L10.28 19.1C10.2465 19.0664 10.2068 19.0398 10.163 19.0216C10.1193 19.0035 10.0724 18.9941 10.025 18.9941C9.97761 18.9941 9.93069 19.0035 9.88694 19.0216C9.84318 19.0398 9.80344 19.0664 9.76999 19.1C9.2706 19.2421 8.78525 19.4295 8.31999 19.66C7.86473 19.8933 7.42393 20.1537 6.99999 20.44V20.34V19.34L7.12999 17.85C7.12637 17.779 7.10289 17.7104 7.06223 17.6521C7.02157 17.5937 6.96536 17.548 6.89999 17.52C6.86934 17.4866 6.83232 17.4596 6.7911 17.4408C6.74989 17.4219 6.70531 17.4114 6.65999 17.41C6.28999 17.41 5.92999 17.34 5.55999 17.29C4.68999 17.18 3.82999 17.02 2.95999 16.89H2.64999C2.85101 16.5808 3.07853 16.2897 3.32999 16.02C3.72999 15.57 4.17999 15.16 4.57999 14.76C4.97999 14.36 4.29999 14.16 2.64999 13.52C2.37999 13.41 2.10999 13.3 1.84999 13.17L1.99999 13.11L4.31999 11.56C4.48999 11.41 4.60999 11.25 4.48999 11.04C4.36999 10.83 4.28999 11.04 3.61999 10.48L2.99999 9.93L1.68999 8.67H1.81999C2.25999 8.52 2.70999 8.39 3.15999 8.28C5.99999 7.54 5.23999 9.6 5.88999 5.2C6.174 5.26563 6.45172 5.35598 6.71999 5.47C7.51999 5.8 8.27999 6.26 9.00999 6.6C9.57999 6.91 10.01 5.48 10.81 3.87C10.81 3.87 10.91 3.52 11.03 3.25C11.3032 3.52786 11.5386 3.84056 11.73 4.18C12.28 5.09 12.73 6.18 13.09 6.77C13.09 6.77 13.14 6.77 13.17 6.84H13.23C13.23 6.84 13.29 6.84 13.33 6.9C13.3756 6.92633 13.4273 6.94019 13.48 6.94019C13.5326 6.94019 13.5844 6.92633 13.63 6.9L16.54 5L16.76 4.76V4.85C16.8339 5.22983 16.884 5.61391 16.91 6C16.91 6.63 16.91 7.27 16.97 7.89C16.9687 7.94704 16.9817 8.0035 17.0079 8.05418C17.0341 8.10486 17.0727 8.14813 17.12 8.18C17.1572 8.241 17.2144 8.28725 17.2818 8.31094C17.3492 8.33463 17.4228 8.3343 17.49 8.31L18.31 8.11C18.97 7.97 19.62 7.87 20.31 7.75C20.37 7.75 20.51 7.66 20.66 7.6V7.79C20.6681 8.12736 20.6277 8.46414 20.54 8.79C20.2 10.06 19.75 10.79 20.13 11C20.4586 11.2302 20.7726 11.4807 21.07 11.75C21.51 12.13 21.92 12.53 22.32 12.94C21.949 13.0495 21.5716 13.1364 21.19 13.2Z" fill="black"/>
<path fill-rule="evenodd" clip-rule="evenodd" d="M7.17998 11.82C6.98087 11.7189 6.79025 11.6018 6.60998 11.47C6.47998 11.38 6.37998 11.39 6.49998 11.28L6.78998 11.17H7.44998C7.49137 11.1804 7.53441 11.1824 7.57658 11.1759C7.61875 11.1694 7.65919 11.1545 7.69553 11.1321C7.73187 11.1098 7.76337 11.0804 7.78817 11.0457C7.81298 11.011 7.83059 10.9716 7.83998 10.93C7.85051 10.8893 7.85291 10.8469 7.84704 10.8053C7.84118 10.7636 7.82717 10.7236 7.80581 10.6873C7.78445 10.6511 7.75616 10.6195 7.72256 10.5942C7.68895 10.5689 7.6507 10.5505 7.60998 10.54C7.43998 10.48 7.27998 10.44 7.11998 10.4C6.99805 10.3742 6.87438 10.3575 6.74998 10.35L6.14998 10.42L5.74998 10.63C5.63403 10.7174 5.54017 10.8308 5.47592 10.9611C5.41167 11.0913 5.37881 11.2348 5.37998 11.38C5.37865 11.5655 5.41421 11.7495 5.48459 11.9212C5.55498 12.0928 5.65878 12.2488 5.78998 12.38C6.05998 12.63 6.40998 12.77 6.68998 13.02C6.7824 13.1024 6.84849 13.2102 6.87998 13.33C6.93998 13.55 6.87998 13.73 6.78998 13.8C6.66789 13.8494 6.53367 13.8606 6.40509 13.832C6.27651 13.8034 6.15965 13.7365 6.06998 13.64C6.04143 13.6015 6.00546 13.569 5.9642 13.5446C5.92294 13.5202 5.87722 13.5042 5.82971 13.4977C5.7822 13.4912 5.73387 13.4942 5.68755 13.5066C5.64123 13.5191 5.59786 13.5406 5.55998 13.57C5.4837 13.6311 5.43386 13.7192 5.42083 13.816C5.40779 13.9128 5.43256 14.011 5.48998 14.09C5.65755 14.3459 5.90078 14.5432 6.1858 14.6544C6.47081 14.7655 6.78339 14.785 7.07998 14.71C7.42688 14.6269 7.72678 14.4098 7.91415 14.1063C8.10153 13.8027 8.16114 13.4374 8.07998 13.09C8.03135 12.8112 7.91836 12.5475 7.74998 12.32C7.59809 12.1143 7.40368 11.9438 7.17998 11.82Z" fill="black"/>
<path fill-rule="evenodd" clip-rule="evenodd" d="M11.3 10.29C11.1717 10.1589 11.0143 10.0598 10.8406 10.0007C10.6668 9.94166 10.4817 9.92428 10.3 9.94999C10.0418 10.0028 9.8011 10.1197 9.6 10.29C9.35866 10.4884 9.15537 10.7289 9 11C8.84401 11.3125 8.74898 11.6519 8.72 12C8.69575 12.453 8.69575 12.907 8.72 13.36V14.77C8.71867 14.8133 8.72589 14.8565 8.74125 14.8971C8.75662 14.9376 8.77982 14.9747 8.80954 15.0063C8.83926 15.0379 8.87491 15.0633 8.91445 15.0811C8.954 15.0989 8.99666 15.1087 9.04 15.11C9.08285 15.1127 9.1258 15.1067 9.1663 15.0925C9.2068 15.0783 9.24402 15.056 9.27574 15.0271C9.30746 14.9982 9.33304 14.9631 9.35095 14.9241C9.36887 14.8851 9.37875 14.8429 9.38 14.8L9.52 13.72C9.66669 13.8345 9.82814 13.9287 10 14C10.0894 14.0145 10.1806 14.0145 10.27 14H10.54C10.6385 13.9806 10.7355 13.9539 10.83 13.92C10.83 14.25 10.83 14.59 10.78 14.92C10.773 14.9673 10.7754 15.0156 10.7873 15.062C10.7991 15.1083 10.8201 15.1519 10.8489 15.1901C10.8778 15.2282 10.914 15.2603 10.9554 15.2843C10.9968 15.3083 11.0425 15.3239 11.09 15.33C11.1386 15.3355 11.1879 15.3314 11.2349 15.3177C11.2819 15.3041 11.3258 15.2813 11.3639 15.2506C11.402 15.2199 11.4337 15.182 11.4571 15.1389C11.4804 15.0959 11.495 15.0487 11.5 15C11.6618 14.3068 11.7886 13.6059 11.88 12.9C11.9504 12.3924 11.9504 11.8776 11.88 11.37C11.7956 10.9613 11.594 10.5861 11.3 10.29ZM10.6 12.81C10.5095 12.7801 10.4152 12.7632 10.32 12.76C10.2273 12.7449 10.1327 12.7449 10.04 12.76C9.9055 12.793 9.7748 12.8399 9.65 12.9C9.65 12.67 9.65 12.41 9.75 12.19C9.80352 11.9724 9.89492 11.7659 10.02 11.58C10.0889 11.4747 10.1732 11.3803 10.27 11.3C10.34 11.23 10.54 10.92 10.71 11.6C10.8189 12.0011 10.876 12.4144 10.88 12.83C10.88 12.83 10.88 12.88 10.88 12.91C10.88 12.94 10.7 12.84 10.6 12.81Z" fill="black"/>
<path fill-rule="evenodd" clip-rule="evenodd" d="M14.44 14.34L14.04 14.19L13.73 14C13.63 13.93 13.64 13.81 13.62 13.71C13.588 13.3774 13.588 13.0426 13.62 12.71L13.36 10.71C13.3628 10.6241 13.3319 10.5406 13.274 10.4771C13.2161 10.4136 13.1358 10.3752 13.05 10.37C12.9632 10.3698 12.8796 10.4029 12.8164 10.4624C12.7532 10.5219 12.7151 10.6033 12.71 10.69L12.39 12.69C12.3537 13.1292 12.3875 13.5714 12.49 14C12.5415 14.1954 12.6393 14.3755 12.775 14.5252C12.9108 14.6749 13.0805 14.7897 13.27 14.86L13.78 15.01L14.37 15.07C14.4186 15.0746 14.4676 15.0696 14.5143 15.0552C14.5609 15.0409 14.6043 15.0175 14.6419 14.9864C14.6795 14.9553 14.7106 14.9171 14.7334 14.8739C14.7563 14.8308 14.7704 14.7836 14.775 14.735C14.7796 14.6864 14.7746 14.6374 14.7602 14.5907C14.7459 14.5441 14.7225 14.5007 14.6914 14.4631C14.6603 14.4255 14.6221 14.3944 14.5789 14.3716C14.5358 14.3487 14.4886 14.3346 14.44 14.33V14.34Z" fill="black"/>
<path fill-rule="evenodd" clip-rule="evenodd" d="M17.59 10.21C17.4623 10.1786 17.3315 10.1619 17.2 10.16C17.0704 10.1451 16.9396 10.1451 16.81 10.16C15.87 10.37 15.59 10.48 15.25 12.39C15.1852 12.8067 15.1651 13.2291 15.19 13.65C15.2114 13.9401 15.272 14.2261 15.37 14.5C15.4384 14.6793 15.5521 14.8378 15.7 14.96C15.9358 15.1484 16.2201 15.2663 16.52 15.3C16.52 15.3 17.97 15.41 17.9 14.8C17.83 14.19 17.41 14.54 16.82 14.41C16.6743 14.3713 16.5447 14.2872 16.45 14.17V13.54C16.5464 13.55 16.6436 13.55 16.74 13.54L17.06 13.49C18.12 13.23 18.15 13.08 18.15 12.88C18.15 12.68 18.09 12.5 17.01 12.32C16.9036 12.3097 16.7964 12.3097 16.69 12.32H16.4V11.93V11.24L16.85 11.35C16.9631 11.3596 17.0769 11.3596 17.19 11.35H17.54C18.69 11.2 18.78 11.08 18.8 10.84C18.82 10.6 18.72 10.46 17.59 10.21Z" fill="black"/>
</g>
<defs>
<clipPath id="clip0_1050_8186">
<rect width="24" height="24" fill="white"/>
</clipPath>
</defs>
</svg>
